<?xml version="1.0" encoding="UTF-8"?>
<svg id="Camada_1" data-name="Camada 1" xmlns="http://www.w3.org/2000/svg" viewBox="0 0 267.65 219.91">
  <defs>
    <style>
      .cls-1 {
        fill: #fff;
      }
    </style>
  </defs>
  <path class="cls-1" d="M259.31,119.37c5.2-5.2,5.2-13.63,0-18.83l-35.88-35.88c-.27-.27-.37-.64-.62-.93L166.88,7.8c-5.2-5.2-13.63-5.2-18.83,0l-38.02,38.02c-5.2,5.2-5.2,13.63,0,18.83l35.88,35.88c5.2,5.2,5.2,13.63,0,18.83l-35.88,35.89c-5.2,5.2-5.2,13.63,0,18.83l38.02,38.02c5.2,5.2,13.63,5.2,18.83,0l55.93-55.93c.24-.29.34-.65.62-.93l35.89-35.89Z"/>
  <path class="cls-1" d="M131.25,117.75c4.3-4.3,4.3-11.28,0-15.59l-29.71-29.7c-.23-.23-.31-.53-.51-.77L54.74,25.39c-4.3-4.3-11.28-4.3-15.59,0L7.67,56.87c-4.31,4.31-4.31,11.29,0,15.59l29.71,29.7c4.3,4.31,4.3,11.29,0,15.59l-29.71,29.71c-4.31,4.31-4.31,11.29,0,15.59l31.48,31.48c4.3,4.31,11.28,4.31,15.59,0l46.3-46.3c.2-.24.28-.54.51-.77l29.71-29.71Z"/>
</svg>