<?xml version="1.0" encoding="UTF-8"?>
<svg id="Camada_1" data-name="Camada 1" xmlns="http://www.w3.org/2000/svg" viewBox="0 0 996.67 817.23">
  <defs>
    <style>
      .cls-1 {
        fill: #0e5fa6;
      }
    </style>
  </defs>
  <path class="cls-1" d="M970.94,444.08c19.58-19.58,19.58-51.34,0-70.93l-135.15-135.14c-1.04-1.04-1.4-2.4-2.32-3.5L622.83,23.87c-19.58-19.58-51.34-19.58-70.92,0l-143.21,143.21c-19.58,19.59-19.58,51.34,0,70.93l135.15,135.14c19.58,19.59,19.58,51.34,0,70.93l-135.15,135.15c-19.58,19.59-19.58,51.34,0,70.92l143.21,143.21c19.58,19.59,51.34,19.59,70.92,0l210.64-210.64c.92-1.09,1.29-2.46,2.32-3.49l135.15-135.15Z"/>
  <path class="cls-1" d="M488.63,437.97c16.21-16.21,16.21-42.5,0-58.71l-111.88-111.88c-.86-.86-1.16-1.99-1.92-2.9L200.46,90.12c-16.21-16.21-42.5-16.21-58.71,0L23.2,208.67c-16.21,16.21-16.21,42.5,0,58.71l111.88,111.88c16.21,16.21,16.21,42.5,0,58.71l-111.88,111.88c-16.21,16.21-16.21,42.5,0,58.71l118.55,118.55c16.21,16.21,42.5,16.21,58.71,0l174.37-174.37c.76-.9,1.07-2.04,1.92-2.89l111.88-111.88Z"/>
</svg>