<?xml version="1.0" encoding="UTF-8"?>
<svg id="Camada_1" data-name="Camada 1" xmlns="http://www.w3.org/2000/svg" viewBox="0 0 1080 232.89">
  <defs>
    <style>
      .cls-1 {
        fill: #fff;
      }
    </style>
  </defs>
  <path class="cls-1" d="M318.29,125.21c5.2-5.2,5.2-13.63,0-18.83l-35.88-35.88c-.27-.27-.37-.64-.62-.93l-55.93-55.93c-5.2-5.2-13.63-5.2-18.83,0l-38.02,38.02c-5.2,5.2-5.2,13.63,0,18.83l35.88,35.88c5.2,5.2,5.2,13.63,0,18.83l-35.88,35.89c-5.2,5.2-5.2,13.63,0,18.83l38.02,38.02c5.2,5.2,13.63,5.2,18.83,0l55.93-55.93c.24-.29.34-.65.62-.93l35.89-35.89Z"/>
  <path class="cls-1" d="M190.23,123.59c4.3-4.3,4.3-11.28,0-15.59l-29.71-29.7c-.23-.23-.31-.53-.51-.77l-46.3-46.3c-4.3-4.3-11.28-4.3-15.59,0l-31.48,31.48c-4.31,4.31-4.31,11.29,0,15.59l29.71,29.7c4.3,4.31,4.3,11.29,0,15.59l-29.71,29.71c-4.31,4.31-4.31,11.29,0,15.59l31.48,31.48c4.3,4.31,11.28,4.31,15.59,0l46.3-46.3c.2-.24.28-.54.51-.77l29.71-29.71Z"/>
  <path class="cls-1" d="M614.81,110.66c-11.54-8.63-29.07-12.95-52.57-12.95h-126.66c-9.98,0-16.9-1.61-20.75-4.84-3.85-3.22-5.77-8.16-5.77-14.82v-3.74c0-6.86,1.92-12.11,5.77-15.76,3.85-3.64,10.76-5.46,20.75-5.46h125.72c2.53,0,4.85.12,6.98.34-.02-.11-.02-.23-.03-.34h4.64l11.2-43.36h-1.48c-1.37-.04-16.72,0-18.14,0h-132.62c-24.33,0-41.39,5.2-51.16,15.6-9.78,10.4-14.66,23.19-14.66,38.37v28.39c0,14.98,5.56,26.88,16.69,35.72,11.12,8.84,28.86,13.26,53.19,13.26h126.35c9.56,0,16.38,1.61,20.43,4.83,4.06,3.23,6.08,7.96,6.08,14.19v3.74c0,6.45-2.03,11.6-6.08,15.44-4.05,3.85-10.87,5.77-20.43,5.77l-102.35-.25h-93.08c1.75,11.38,6.41,20.88,14.02,28.49,9.88,9.88,26.88,14.82,51.01,14.82h134.46c23.5,0,40.35-4.83,50.54-14.51,10.19-9.67,15.29-24.18,15.29-43.52v-20.9c0-17.05-5.77-29.9-17.31-38.53"/>
  <polygon class="cls-1" points="589.41 53.1 600.61 9.74 593.39 9.74 582.2 53.1 589.41 53.1"/>
  <path class="cls-1" d="M896.36,98.33v43.68h80.34v42.43h-145.47c-7.65,0-13.34-1.82-17.07-5.46-3.73-3.64-5.59-9.93-5.59-18.87v-63.33h-39.88v72.68c0,18.72,4.64,33.18,13.92,43.36,9.28,10.19,22.52,15.29,39.74,15.29h194.24V98.33h-120.22Z"/>
  <path class="cls-1" d="M769.65,53.1h246.82c-1.67-11.28-5.92-20.73-12.79-28.32-9.08-10.04-24.72-15.05-46.91-15.05h-108.33s-27.53,0-27.53,0c-1.95,0-3.83.07-5.67.21v-.21h-41.98v-.02h-47.49v.02h-115.84l-11.2,43.36h72.43v175.01h43.36V53.1h11.24s43.9,0,43.9,0Z"/>
</svg>