<?xml version="1.0" encoding="UTF-8"?>
<svg id="Camada_1" data-name="Camada 1" xmlns="http://www.w3.org/2000/svg" viewBox="0 0 612 177.36">
  <defs>
    <style>
      .cls-1 {
        fill: #0e314c;
      }

      .cls-2 {
        fill: #6799c6;
      }
    </style>
  </defs>
  <g>
    <path class="cls-1" d="M208.36,20.54h-33.57v100.67h20.88v-34.8h13.5c18.31,0,34.05-16.54,34.05-32.8s-15.9-33.07-34.85-33.07ZM206.11,67.57h-10.44v-28.33h10.44c8.68,0,16.06,6.32,16.06,14.38s-7.22,13.96-16.06,13.96Z"/>
    <path class="cls-1" d="M284.49,43.12c-18.79,0-37.42,12.8-37.58,38.83-.16,26.19,18.79,39.41,37.74,39.41,11.89,0,23.61-5.16,30.84-15.38l-18.15-9.49c-3.22,4.03-8.04,6.03-12.69,6.03-7.38,0-14.78-5.02-16.54-15.24h54.12c2.89-29.05-17.51-44.15-37.74-44.15ZM268.91,73.76c2.75-7.91,9.16-11.94,15.59-11.94s13.17,4.03,15.91,11.94h-31.5Z"/>
    <path class="cls-1" d="M387.14,60.22h13.81v-17.11h-26.67c12.53,0,12.86-13.39,12.86-22.58h-20.9v22.58h-28.59c12.69,0,12.86-13.39,12.86-22.58h-20.88v68.04c.15,22.86,8.66,32.64,28.9,32.64h5.79v-18.83h-5.79c-8.5,0-8.02-8.2-8.02-14.25v-27.91h15.73v28.35c0,22.86,8.52,32.64,28.75,32.64h5.95v-18.83h-5.95c-8.19,0-7.86-8.35-7.86-14.25v-27.91Z"/>
    <path class="cls-1" d="M513.86,43.26v43.44c-1.76,10.2-8.99,15.53-16.37,15.8-11.74.29-17.2-10.35-17.51-19.41l.15-39.83h-21.04v37.82c-.48,18.55,11.89,39.85,35.02,40.13,7.07,0,13.99-2.14,19.76-6.76v6.63h20.88V43.26h-20.88Z"/>
    <path class="cls-1" d="M564.93,66.41c.33-2.88,6.43-4.74,13.17-4.6,5.79.29,12.22,2.01,15.59,6.32l18.31-9.49c-7.55-10.64-21.04-15.38-34.21-15.38-17.34-.15-34.06,8.19-34.21,23.15-.49,29.63,46.74,18.55,46.9,31.35.15,4.32-9.8,5.04-13.02,4.89-5.93-.15-12.2-2.01-15.59-6.17l-18.3,9.34c7.55,10.79,21.04,15.38,34.05,15.53,15.9,0,34.38-7.18,34.38-23.59,0-30.35-47.71-19.71-47.07-31.35Z"/>
  </g>
  <g>
    <path class="cls-1" d="M195.04,169.99v-21.81h2.91v21.81h-2.91ZM197.36,162.44v-2.56h4.84c1.03,0,1.88-.2,2.56-.61s1.18-.96,1.53-1.65.52-1.47.52-2.32-.17-1.65-.52-2.35c-.35-.69-.86-1.24-1.53-1.63-.67-.4-1.53-.59-2.56-.59h-4.84v-2.56h4.31c1.78,0,3.27.28,4.47.85s2.11,1.36,2.72,2.39c.61,1.03.92,2.25.92,3.66v.48c0,1.39-.31,2.6-.92,3.64-.61,1.04-1.52,1.84-2.72,2.41s-2.69.85-4.47.85h-4.31Z"/>
    <path class="cls-1" d="M218.22,169.99v-21.81h2.91v21.81h-2.91ZM220.03,162.14v-2.59h5.82c.91,0,1.69-.19,2.35-.56.65-.38,1.16-.9,1.52-1.56.36-.66.53-1.42.53-2.27s-.18-1.61-.53-2.27c-.36-.66-.86-1.19-1.52-1.57-.65-.39-1.44-.58-2.35-.58h-5.82v-2.56h5.29c1.59,0,2.97.24,4.16.71,1.19.48,2.11,1.21,2.76,2.2.65.99.98,2.27.98,3.83v.47c0,1.57-.33,2.84-1,3.83-.66.99-1.59,1.72-2.76,2.2-1.18.47-2.56.71-4.15.71h-5.29ZM231.62,169.99l-7.19-9.66h3.42l7.31,9.66h-3.54Z"/>
    <path class="cls-1" d="M252.54,170.52c-1.94,0-3.62-.35-5.02-1.04-1.41-.69-2.57-1.61-3.48-2.73-.91-1.13-1.59-2.34-2.04-3.63-.45-1.29-.67-2.53-.67-3.71v-.65c0-1.29.23-2.59.68-3.89.46-1.31,1.15-2.5,2.08-3.58.93-1.08,2.09-1.95,3.49-2.6,1.4-.65,3.05-.98,4.95-.98s3.55.33,4.95.98c1.4.65,2.56,1.52,3.49,2.6s1.62,2.27,2.08,3.58c.45,1.31.68,2.61.68,3.89v.65c0,1.19-.22,2.43-.67,3.71-.45,1.29-1.13,2.5-2.04,3.63-.91,1.13-2.07,2.04-3.48,2.73-1.41.69-3.08,1.04-5.02,1.04ZM252.54,167.85c1.27,0,2.41-.24,3.43-.71,1.02-.48,1.89-1.12,2.6-1.95.71-.82,1.26-1.75,1.63-2.79.38-1.04.56-2.13.56-3.28,0-1.21-.19-2.34-.56-3.39-.38-1.05-.92-1.98-1.63-2.78-.71-.8-1.58-1.43-2.6-1.89-1.02-.46-2.17-.68-3.43-.68s-2.41.23-3.43.68c-1.02.46-1.89,1.08-2.6,1.89-.71.8-1.26,1.73-1.63,2.78-.38,1.05-.56,2.18-.56,3.39s.19,2.24.56,3.28c.38,1.04.92,1.97,1.63,2.79.71.82,1.58,1.47,2.6,1.95,1.02.47,2.16.71,3.43.71Z"/>
    <path class="cls-1" d="M269.66,150.91v-2.61h16.11v2.61h-16.11ZM276.25,169.99v-19.67h2.91v19.67h-2.91Z"/>
    <path class="cls-1" d="M293.85,169.99v-21.69h2.91v21.69h-2.91ZM296.16,150.91v-2.61h10.22v2.61h-10.22ZM296.16,160.27v-2.62h9.6v2.62h-9.6ZM296.16,169.99v-2.61h10.52v2.61h-10.52Z"/>
    <path class="cls-1" d="M325.08,170.52c-1.98,0-3.67-.35-5.07-1.04-1.4-.69-2.52-1.59-3.37-2.7-.85-1.11-1.48-2.31-1.87-3.61-.4-1.3-.59-2.55-.59-3.76v-.65c0-1.31.2-2.61.61-3.92.41-1.31,1.04-2.5,1.89-3.57.85-1.07,1.96-1.93,3.33-2.59,1.37-.65,3-.98,4.9-.98s3.61.34,4.99,1.01c1.39.67,2.49,1.62,3.3,2.82.81,1.21,1.31,2.64,1.48,4.28h-2.97c-.16-1.23-.56-2.24-1.19-3.05-.63-.8-1.43-1.4-2.39-1.8-.96-.4-2.04-.59-3.23-.59-1.29,0-2.42.22-3.39.67-.97.45-1.78,1.07-2.42,1.87-.65.8-1.13,1.73-1.46,2.78-.33,1.05-.49,2.19-.49,3.42s.16,2.28.49,3.33c.33,1.05.82,1.98,1.48,2.79.66.81,1.49,1.45,2.48,1.92.99.47,2.15.7,3.48.7,1.86,0,3.43-.47,4.7-1.4,1.27-.93,2.04-2.28,2.32-4.04h2.97c-.2,1.49-.7,2.84-1.5,4.07-.8,1.23-1.91,2.21-3.33,2.94s-3.14,1.1-5.16,1.1ZM324.9,177.36c-.38,0-.76-.03-1.14-.09-.39-.06-.72-.13-1-.21v-2.02c.3.08.64.15,1.04.21.4.06.76.09,1.1.09.67,0,1.18-.1,1.52-.31.34-.21.5-.47.5-.79,0-.3-.15-.53-.45-.71-.3-.18-.73-.27-1.31-.27h-1.19v-3.57h1.9v2.82l-1.31-1.1h.48c1.17,0,2.12.24,2.85.71.73.48,1.1,1.16,1.1,2.05s-.36,1.62-1.08,2.24c-.72.62-1.73.94-3.02.94Z"/>
    <path class="cls-1" d="M340.95,169.99l7.82-21.69h4.93l8.05,21.69h-3l-7.28-19.79,1.43.71h-3.51l1.51-.71-7.04,19.79h-2.91ZM345.61,163.51l.98-2.61h9.36l.98,2.61h-11.32ZM353.75,145.86c-.53,0-1-.07-1.38-.21-.39-.14-.74-.3-1.05-.47-.32-.18-.64-.34-.97-.48-.33-.14-.72-.21-1.17-.21s-.94.1-1.38.31c-.45.21-.81.5-1.08.88l-.54-1.84c.28-.4.68-.73,1.22-1.01.53-.28,1.15-.42,1.84-.42.53,0,.99.07,1.38.21s.74.3,1.05.48c.32.18.64.34.98.47.34.14.72.21,1.16.21.48,0,.94-.1,1.38-.31.45-.21.81-.5,1.08-.88l.53,1.84c-.3.4-.71.73-1.23,1.01-.52.28-1.13.42-1.83.42Z"/>
    <path class="cls-1" d="M378.92,170.52c-1.94,0-3.62-.35-5.02-1.04-1.41-.69-2.57-1.61-3.48-2.73-.91-1.13-1.59-2.34-2.04-3.63-.45-1.29-.67-2.53-.67-3.71v-.65c0-1.29.23-2.59.68-3.89.46-1.31,1.15-2.5,2.08-3.58.93-1.08,2.09-1.95,3.49-2.6,1.4-.65,3.05-.98,4.95-.98s3.55.33,4.95.98c1.4.65,2.56,1.52,3.49,2.6s1.62,2.27,2.08,3.58c.45,1.31.68,2.61.68,3.89v.65c0,1.19-.22,2.43-.67,3.71-.45,1.29-1.13,2.5-2.04,3.63-.91,1.13-2.07,2.04-3.48,2.73-1.41.69-3.08,1.04-5.02,1.04ZM378.92,167.85c1.27,0,2.41-.24,3.43-.71,1.02-.48,1.89-1.12,2.6-1.95.71-.82,1.26-1.75,1.63-2.79.38-1.04.56-2.13.56-3.28,0-1.21-.19-2.34-.56-3.39-.38-1.05-.92-1.98-1.63-2.78-.71-.8-1.58-1.43-2.6-1.89-1.02-.46-2.17-.68-3.43-.68s-2.41.23-3.43.68c-1.02.46-1.89,1.08-2.6,1.89-.71.8-1.26,1.73-1.63,2.78-.38,1.05-.56,2.18-.56,3.39s.19,2.24.56,3.28c.38,1.04.92,1.97,1.63,2.79.71.82,1.58,1.47,2.6,1.95,1.02.47,2.16.71,3.43.71Z"/>
    <path class="cls-1" d="M415.03,169.99l-7.52-21.69h3l6.74,19.79-1.43-.71h3.57l-1.52.71,6.21-19.79h2.91l-6.98,21.69h-4.99Z"/>
    <path class="cls-1" d="M435.21,169.99v-21.69h2.91v21.69h-2.91ZM437.52,150.91v-2.61h10.22v2.61h-10.22ZM437.52,160.27v-2.62h9.6v2.62h-9.6ZM437.52,169.99v-2.61h10.52v2.61h-10.52Z"/>
    <path class="cls-1" d="M457.25,169.99v-21.69h2.91v21.69h-2.91Z"/>
    <path class="cls-1" d="M480.11,170.52c-1.98,0-3.67-.35-5.07-1.04-1.4-.69-2.52-1.59-3.37-2.7-.85-1.11-1.48-2.31-1.87-3.61-.4-1.3-.59-2.55-.59-3.76v-.65c0-1.31.2-2.61.61-3.92.41-1.31,1.04-2.5,1.89-3.57s1.96-1.93,3.33-2.59c1.37-.65,3-.98,4.9-.98s3.61.34,4.99,1.01c1.39.67,2.49,1.62,3.3,2.82.81,1.21,1.31,2.64,1.48,4.28h-2.97c-.16-1.23-.56-2.24-1.19-3.05-.63-.8-1.43-1.4-2.39-1.8-.96-.4-2.04-.59-3.23-.59-1.29,0-2.42.22-3.39.67s-1.78,1.07-2.42,1.87c-.65.8-1.13,1.73-1.46,2.78-.33,1.05-.49,2.19-.49,3.42s.16,2.28.49,3.33c.33,1.05.82,1.98,1.48,2.79.66.81,1.49,1.45,2.48,1.92.99.47,2.15.7,3.48.7,1.86,0,3.43-.47,4.7-1.4,1.27-.93,2.04-2.28,2.32-4.04h2.97c-.2,1.49-.7,2.84-1.5,4.07-.8,1.23-1.91,2.21-3.33,2.94s-3.14,1.1-5.16,1.1Z"/>
    <path class="cls-1" d="M507.06,170.52c-1.96,0-3.61-.38-4.95-1.14-1.34-.76-2.35-1.83-3.03-3.21-.68-1.38-1.02-2.98-1.02-4.8v-13.07h2.91v13.43c0,1.21.23,2.27.7,3.19s1.15,1.64,2.06,2.15c.91.52,2.02.77,3.33.77s2.41-.25,3.31-.76c.9-.5,1.58-1.22,2.05-2.14.47-.92.7-2,.7-3.22v-13.43h2.91v13.07c0,1.82-.34,3.42-1.01,4.8-.67,1.38-1.67,2.45-3,3.21-1.33.76-2.98,1.14-4.96,1.14Z"/>
    <path class="cls-1" d="M526.08,169.99v-21.69h2.91v21.69h-2.91ZM528.4,169.99v-2.61h9.93v2.61h-9.93Z"/>
    <path class="cls-1" d="M544.44,169.99l7.82-21.69h4.93l8.05,21.69h-3l-7.28-19.79,1.43.71h-3.51l1.51-.71-7.04,19.79h-2.91ZM549.11,163.51l.98-2.61h9.36l.98,2.61h-11.32Z"/>
    <path class="cls-1" d="M573.39,169.99v-21.81h2.91v21.81h-2.91ZM575.2,162.14v-2.59h5.82c.91,0,1.69-.19,2.35-.56.65-.38,1.16-.9,1.52-1.56.36-.66.53-1.42.53-2.27s-.18-1.61-.53-2.27c-.36-.66-.86-1.19-1.52-1.57-.65-.39-1.44-.58-2.35-.58h-5.82v-2.56h5.29c1.59,0,2.97.24,4.16.71,1.19.48,2.11,1.21,2.76,2.2.65.99.98,2.27.98,3.83v.47c0,1.57-.33,2.84-1,3.83-.66.99-1.59,1.72-2.76,2.2-1.18.47-2.56.71-4.15.71h-5.29ZM586.79,169.99l-7.19-9.66h3.42l7.31,9.66h-3.54Z"/>
  </g>
  <path class="cls-1" d="M454.43,61.96h-16.54c-8.19,0-8.04,13.52-8.04,14.23v44.59h-20.88V43.26h30.57l4.27.02c10.49,0,10.62,11.06,10.62,18.68Z"/>
  <g>
    <path class="cls-2" d="M79.73,0h-34.42v93.49h34.42c29.19,0,52.97-19.94,52.97-46.02S108.37,0,79.73,0Z"/>
    <path class="cls-2" d="M.28,93.49v48.75l17.34-.04c27.33,0,27.69-28.85,27.69-48.71H.28Z"/>
  </g>
</svg>