<svg width="30" height="31" viewBox="0 0 30 31" fill="none" xmlns="http://www.w3.org/2000/svg">
<path d="M14.0493 0.0117149C11.5821 0.171627 8.99157 1.05799 6.94471 2.44236C4.78363 3.90441 3.07029 5.87817 1.96005 8.18089C1.35239 9.4419 0.973173 10.6298 0.712747 12.0919C0.516284 13.1884 0.475164 14.8423 0.612231 16.1125C0.794987 17.8212 1.42092 19.8681 2.26617 21.5403L2.50832 22.0109L1.94635 23.6877C1.63566 24.6106 1.07369 26.292 0.694471 27.425C0.310684 28.5627 0 29.5222 0 29.5679C0 29.609 0.0593956 29.6684 0.132498 29.6958C0.251289 29.7415 0.264996 29.7598 0.242151 29.9014C0.214738 30.0476 0.219307 30.0567 0.324391 30.0247C0.511716 29.9654 4.60087 28.6632 6.32791 28.1058C7.23255 27.818 8.00926 27.5804 8.05495 27.5804C8.09607 27.5804 8.29253 27.6581 8.489 27.7586C10.1612 28.5993 11.9431 29.1018 13.8392 29.2754C14.5885 29.3394 16.1145 29.3074 16.8501 29.2023C21.2088 28.5993 24.9187 26.1914 27.2032 22.4952C27.9479 21.289 28.6561 19.6077 29.0353 18.1456C29.3962 16.743 29.5698 15.0022 29.4739 13.659C29.2272 10.0907 27.8474 6.92901 25.4487 4.44354C23.1231 2.03573 20.1625 0.546276 16.7907 0.093956C16.2972 0.0299911 14.5885 -0.0248356 14.0493 0.0117149ZM15.8358 3.13684C17.4669 3.26933 18.8055 3.63028 20.2173 4.32018C22.1317 5.26137 23.7354 6.66859 24.9233 8.45959C25.8371 9.83483 26.399 11.3151 26.6183 12.9325C26.7234 13.7001 26.7234 15.2535 26.6183 16.0394C25.8736 21.5632 21.3139 25.8214 15.7809 26.1686C13.83 26.2874 12.0162 25.9676 10.2434 25.1909C9.75458 24.9761 8.94588 24.5375 8.6946 24.3548C8.61692 24.2954 8.51641 24.2451 8.47072 24.2451C8.4296 24.2451 7.45643 24.5421 6.3142 24.9076C5.17198 25.2731 4.23079 25.5701 4.22622 25.5609C4.21708 25.5518 4.50949 24.6609 4.87044 23.5826C5.23138 22.4998 5.52836 21.5632 5.52836 21.4901C5.52836 21.417 5.44612 21.2479 5.32732 21.0789C3.41753 18.3421 2.79616 14.5636 3.72364 11.3608C3.92924 10.6664 4.09829 10.2415 4.43182 9.57897C5.3456 7.79253 6.73911 6.23454 8.45244 5.09232C10.6135 3.64855 13.3137 2.9358 15.8358 3.13684Z" fill="#4A90D9"/>
<path d="M9.79124 7.35852C9.68616 7.3905 9.53538 7.46361 9.44857 7.51386C9.21556 7.66007 8.53936 8.38195 8.3292 8.71091C7.65757 9.75719 7.5068 11.1507 7.90886 12.5122C8.21497 13.5402 8.58962 14.3261 9.27496 15.3861C10.143 16.7202 10.705 17.4421 11.6051 18.3695C12.9575 19.7631 14.0951 20.5443 15.8404 21.2708C17.1289 21.8099 18.0792 22.116 18.6138 22.1709C18.9838 22.2074 19.7925 22.0795 20.2677 21.9059C20.9256 21.6683 21.6795 21.1383 21.9719 20.7088C22.2643 20.2702 22.5659 19.2788 22.6024 18.6208L22.6298 18.1868L22.4882 18.0223C22.3877 17.9127 21.9765 17.6659 21.1449 17.2182C19.1712 16.1582 18.9199 16.0577 18.6092 16.2222C18.5315 16.2587 18.2391 16.5557 17.965 16.8755C17.1517 17.8213 16.9827 17.9858 16.8456 17.9858C16.672 17.9858 15.5343 17.4055 15.0043 17.0491C14.3875 16.6288 13.9855 16.2907 13.4783 15.7653C12.8752 15.1393 12.2219 14.2438 11.8564 13.5448L11.7741 13.3803L12.1031 13.0194C12.5371 12.5579 12.7153 12.2792 12.8889 11.7949C13.0671 11.3015 13.058 11.1507 12.7976 10.4699C12.5646 9.86227 12.3772 9.35969 12.0528 8.48704C11.7878 7.76972 11.5914 7.47731 11.3172 7.3905C11.0568 7.31283 10.006 7.28999 9.79124 7.35852Z" fill="#4A90D9"/>
</svg>
